<?xml version="1.0" encoding="iso-8859-1"?>
<!-- Generator: Adobe Illustrator 17.1.0, SVG Export Plug-In . SVG Version: 6.00 Build 0)  -->
<!DOCTYPE svg PUBLIC "-//W3C//DTD SVG 1.1//EN" "http://www.w3.org/Graphics/SVG/1.1/DTD/svg11.dtd">
<svg version="1.1" id="Capa_1" xmlns="http://www.w3.org/2000/svg" xmlns:xlink="http://www.w3.org/1999/xlink" x="0px" y="0px"
	 viewBox="0 0 334.936 334.936" style="enable-background:new 0 0 334.936 334.936;" xml:space="preserve">
<path d="M102.795,75.058c20.693,0,37.529-16.835,37.529-37.528S123.488,0,102.795,0C82.103,0,65.269,16.836,65.269,37.529
	S82.103,75.058,102.795,75.058z M102.795,18c10.769,0,19.529,8.761,19.529,19.529c0,10.768-8.761,19.528-19.529,19.528
	c-10.767,0-19.526-8.761-19.526-19.528C83.269,26.761,92.028,18,102.795,18z M218.422,75.058c20.692,0,37.527-16.835,37.527-37.528
	S239.114,0,218.422,0s-37.527,16.836-37.527,37.529S197.729,75.058,218.422,75.058z M218.422,18
	c10.768,0,19.527,8.761,19.527,19.529c0,10.768-8.76,19.528-19.527,19.528s-19.527-8.761-19.527-19.528
	C198.894,26.761,207.654,18,218.422,18z M299.139,100.696v13.882c0,4.971-4.029,9-9,9s-9-4.029-9-9v-4.88h-11.827
	c-4.971,0-9-4.029-9-9s4.029-9,9-9h20.64C294.963,91.608,299.139,95.663,299.139,100.696z M105.563,109.698
	c-25.34,0-33.029,27.866-34.782,36.406l-17.166,83.612c-0.875,4.259-4.623,7.192-8.807,7.192c-0.601,0-1.209-0.061-1.819-0.186
	c-4.869-1-8.006-5.758-7.007-10.626l17.166-83.612c6.431-31.327,26.515-50.787,52.415-50.787h56.651c4.971,0,9,4.029,9,9
	s-4.029,9-9,9H105.563z M229.962,325.798c0.001,0.046,0.001,0.091,0.001,0.136c0,1.446-0.342,2.813-0.947,4.024
	c-1.478,2.951-4.529,4.978-8.054,4.978c-0.064,0-0.128-0.001-0.191-0.002h-24.125c-4.971,0-9-4.029-9-9s4.029-9,9-9h15.316V149.305
	c0-4.971,4.029-9,9-9s9,4.029,9,9V325.798z M285.234,226.098c0.999,4.868-2.138,9.626-7.007,10.626
	c-0.61,0.125-1.219,0.186-1.819,0.186c-4.184,0-7.932-2.934-8.807-7.192l-17.166-83.612c-1.753-8.54-9.442-36.406-34.782-36.406
	c-16.718,0-25.583,13.916-35.246,37.954l-28.386,70.611c-1.854,4.611-7.097,6.851-11.707,4.994
	c-4.612-1.854-6.848-7.096-4.994-11.707l28.386-70.612c7.403-18.417,19.795-49.24,51.947-49.24c25.899,0,45.984,19.46,52.415,50.787
	L285.234,226.098z M133.571,325.934c0,4.971-4.029,9-9,9h-24.125c-0.063,0.001-0.127,0.002-0.191,0.002c-4.971,0-9-4.029-9-9
	V149.305c0-4.971,4.029-9,9-9s9,4.029,9,9v167.629h15.316C129.542,316.934,133.571,320.963,133.571,325.934z"/>
<g>
</g>
<g>
</g>
<g>
</g>
<g>
</g>
<g>
</g>
<g>
</g>
<g>
</g>
<g>
</g>
<g>
</g>
<g>
</g>
<g>
</g>
<g>
</g>
<g>
</g>
<g>
</g>
<g>
</g>
</svg>
